<svg xmlns="http://www.w3.org/2000/svg" viewBox="0 0 480 800" width="480" height="800"><rect width="100%" height="100%" fill="#202124"/><polygon points="79.5,342 81.5,339 81.5,336 84.5,331 83.5,329 85.5,328 86.5,324 89.5,319 89.5,317 92.5,312 91.5,311 93.5,309 92,308.5 91.5,307 93,306.5 94,307.5 95.5,305 96.5,300 98.5,297 97.5,296 99.5,294 102.5,288 102.5,285 105.5,280 104.5,278 107.5,276 107.5,274 109.5,271 108.5,268 110.5,268 110.5,266 113.5,260 112.5,259 114,258.5 113.5,257 115.5,256 117.5,249 119.5,247 120.5,242 122.5,239 121.5,238 123.5,237 125.5,230 128.5,225 128.5,222 131.5,218 130.5,216 132.5,214 132.5,212 134.5,210 138.5,201 138.5,199 140.5,196 139.5,194 141.5,192 144.5,186 143.5,185 145.5,184 144.5,183 147.5,179 145.5,178 149.5,175 150.5,170 156.5,157 155.5,156 158.5,153 157.5,151 160.5,148 163.5,138 168.5,129 167.5,128 171.5,122 173.5,116 172.5,115 176.5,110 175.5,108 177.5,107 176.5,106 179.5,101 177.5,100 180.5,99 179.5,98 181,97.5 182.5,95 182.5,93 184.5,90 186.5,83 188.5,81 188.5,78 191.5,73 191.5,71 194.5,65 196,64.5 199.5,74 198.5,76 199.5,78 197.5,79 198.5,80 197.5,81 198.5,82 197.5,84 198.5,85 197.5,87 198.5,88 198.5,94 204.5,104 207.5,106 206.5,107 207.5,108 206.5,110 207.5,111 207.5,115 209.5,118 208,119.5 205.5,117 204.5,114 200.5,110 201.5,109 200,107.5 194,106.5 190.5,110 190.5,113 188.5,117 189.5,120 187.5,122 187.5,125 186.5,126 187.5,130 185.5,131 187.5,133 184.5,135 184.5,139 182.5,144 183.5,146 181.5,150 182.5,151 180.5,152 180.5,156 178.5,162 179.5,165 177.5,166 178.5,168 176.5,170 177.5,174 175.5,175 175.5,179 174.5,180 175.5,182 173.5,183 174.5,186 172.5,188 173.5,191 171.5,192 170.5,201 168.5,205 169.5,208 167.5,209 167.5,214 165.5,218 166.5,221 164.5,222 164.5,226 163.5,227 164.5,230 162.5,232 162.5,236 161.5,237 161.5,246 162.5,247 162.5,250 167.5,257 169,256.5 169.5,258 171.5,259 170.5,260 180.5,270 180.5,273 182.5,276 181.5,278 182.5,279 182.5,284 183.5,286 183,286.5 179.5,283 177.5,279 168,270.5 165,269.5 162,270.5 161,268.5 160,269.5 158,268.5 155.5,270 155,272.5 153.5,272 153.5,275 151.5,280 151.5,284 149.5,288 150.5,293 148.5,293 146.5,306 143.5,314 143.5,319 141.5,324 142.5,325 140.5,327 140.5,330 141.5,331 139.5,332 140.5,333 139.5,336 141.5,340 141.5,343 151,351.5 154,351.5 158,353.5 173,352.5 180,349.5 182.5,346 181.5,344 182.5,342 179.5,337 179.5,335 170,324.5 169,325.5 168,323.5 165.5,323 166,320.5 168,321.5 169,320.5 170,321.5 173,321.5 174,319.5 180,324.5 181,323.5 182,325.5 183,324.5 186,328.5 188,328.5 188.5,330 197.5,338 197,339.5 200.5,338 199.5,335 196.5,334 198.5,333 196.5,331 198,328.5 199,330.5 201,329.5 203,332.5 206,333.5 209,337.5 212,336.5 212.5,334 210.5,331 209.5,325 207.5,322 207.5,320 205.5,319 206.5,317 205.5,316 204.5,308 203.5,307 203.5,296 204.5,295 203.5,293 206.5,284 211.5,276 211.5,274 215,271.5 218,267.5 219,268.5 222,265.5 227,263.5 229,261.5 234,259.5 238,259.5 239,257.5 241,258.5 242,256.5 244,255.5 245,256.5 248,255.5 252,253.5 252,251.5 255,251.5 264.5,243 263.5,242 266.5,240 266.5,238 268.5,235 267.5,234 268.5,233 268.5,229 266.5,228 268.5,227 268.5,224 266.5,224 267.5,222 266.5,220 264.5,218 263.5,215 262,213.5 260.5,214 260,211.5 258,211.5 256,208.5 254,208.5 249,205.5 248,206.5 247,205.5 237,204.5 236,203.5 235,205.5 232,204.5 227,206.5 218.5,214 215.5,218 216.5,219 215,219.5 214,221.5 212.5,221 209.5,227 210.5,228 208.5,231 209.5,232 208.5,233 209.5,234 209,235.5 206,235.5 205,236.5 203.5,235 204.5,234 201.5,231 199.5,227 200.5,226 199.5,225 199.5,216 200.5,213 202.5,212 201,211.5 200.5,210 202,210.5 203.5,209 206.5,200 204.5,199 205.5,196 203.5,195 209.5,187 210.5,182 215.5,174 213.5,157 212.5,155 210.5,154 212.5,153 212.5,145 213.5,144 212.5,143 213.5,140 216.5,137 215.5,136 217.5,135 216.5,134 219,133.5 222.5,129 221.5,128 223,127.5 223.5,131 222.5,133 223.5,134 222,134.5 220.5,137 221.5,140 220.5,141 220.5,144 221,144.5 222,142.5 222.5,145 221.5,146 223.5,147 221.5,149 221.5,151 223.5,153 222.5,154 224.5,157 224.5,159 227.5,163 228.5,166 226.5,167 229.5,169 228.5,171 230,173.5 231,172.5 232,173.5 250,173.5 251,172.5 258,171.5 261,169.5 263,170.5 262.5,169 265,168.5 266.5,167 266.5,162 267.5,160 268,159.5 269.5,161 268.5,163 269,164.5 270.5,164 270.5,166 268.5,167 269.5,169 264,173.5 262,176.5 261,175.5 258,179.5 257,178.5 254,180.5 252,183.5 248,185.5 244.5,189 245,190.5 242.5,191 244,192.5 246,191.5 250,193.5 251,192.5 253,194.5 255,194.5 260,197.5 261,196.5 263,199.5 265,199.5 273.5,207 272.5,208 274.5,209 275.5,212 278.5,213 276.5,214 278.5,215 277.5,216 279.5,219 278.5,222 280.5,226 280.5,231 281.5,232 280.5,233 280.5,236 278.5,240 277.5,246 273.5,254 268.5,258 268.5,260 264,262.5 262,265.5 261,264.5 253,270.5 252,269.5 250,271.5 245,273.5 244,276.5 243,274.5 242,276.5 239,276.5 237.5,279 230.5,285 231.5,286 228.5,289 227.5,292 228.5,300 229.5,303 231.5,305 230.5,306 233.5,308 237.5,315 239.5,315 239.5,317 243.5,320 246.5,325 248,325.5 250,328.5 251.5,328 250.5,330 254.5,335 254.5,337 257.5,341 260,351.5 261.5,347 264.5,343 264.5,340 274,331.5 278,329.5 279.5,330 278.5,334 275.5,337 276.5,342 273.5,344 274.5,345 273.5,347 275,348.5 279.5,339 289,327.5 290,328.5 293,325.5 299,322.5 306,321.5 310,319.5 311.5,321 311.5,323 310,322.5 302.5,328 299.5,332 299.5,334 296.5,336 293.5,346 300,351.5 303,352.5 304,351.5 309,353.5 313,353.5 314,352.5 315,353.5 319,353.5 321,351.5 323,352.5 331.5,347 335.5,341 336.5,331 335.5,330 335.5,324 333.5,321 333.5,318 332.5,317 332.5,311 329.5,305 330.5,303 328.5,302 329.5,299 326.5,291 326.5,285 324.5,281 323.5,274 321.5,270 319,268.5 317,269.5 316,268.5 311,269.5 303,274.5 301,271.5 299,272.5 299.5,271 297.5,270 304.5,261 307.5,259 308.5,256 311,254.5 314.5,250 313.5,245 315.5,245 315.5,240 314,238.5 312.5,239 312.5,238 314.5,237 314.5,234 312.5,232 313.5,229 311.5,228 312.5,226 311.5,225 311.5,220 310.5,219 309.5,212 307.5,211 308.5,210 308.5,207 306.5,206 307.5,205 306.5,198 304.5,198 305.5,193 303.5,192 304.5,191 303.5,190 303.5,186 301.5,184 302.5,183 300.5,182 302,181.5 302.5,180 299.5,176 300.5,173 299.5,172 299.5,167 295.5,155 296.5,154 295.5,153 295.5,150 293.5,145 291.5,145 291.5,144 293.5,143 293.5,141 291.5,140 292.5,137 290.5,136 291.5,135 291.5,132 289.5,132 290.5,127 288.5,124 289.5,123 287.5,122 288.5,121 287.5,119 287.5,114 284.5,110 285.5,109 283,106.5 279,106.5 275,109.5 272.5,107 271.5,104 275.5,100 276.5,94 278.5,92 278.5,80 277.5,79 279.5,77 279.5,75 283,71.5 284.5,74 286.5,75 287.5,79 289.5,81 292.5,92 294.5,94 298.5,106 300.5,108 301.5,113 305.5,119 304.5,120 307.5,125 307.5,128 308.5,130 310.5,131 309.5,132 311.5,134 310.5,135 313.5,139 314.5,144 316.5,145 315.5,146 319.5,153 318.5,154 320.5,157 320.5,159 322.5,161 322.5,163 324.5,164 323.5,165 324.5,168 326.5,169 325.5,171 328.5,176 330.5,182 332.5,183 331.5,184 332.5,188 337.5,196 337.5,199 339.5,202 339.5,204 341.5,205 341.5,208 343.5,213 345.5,215 344.5,216 347.5,221 347.5,223 350.5,226 349.5,227 350.5,228 349.5,229 350.5,232 349.5,233 351.5,234 353.5,239 356.5,242 355.5,243 356.5,246 362.5,257 362.5,259 364.5,262 364.5,265 367.5,271 371.5,276 370.5,279 371.5,282 373.5,283 372.5,284 374.5,285 373.5,286 375.5,290 375.5,293 377.5,295 376.5,296 377.5,299 379.5,300 380.5,304 382,303.5 383.5,305 382.5,306 383.5,311 385,312.5 386.5,312 385.5,314 388.5,319 387.5,320 390.5,322 389.5,325 391.5,326 390.5,327 392.5,330 392.5,332 396.5,337 395.5,340 397.5,343 395.5,345 396.5,348 394.5,348 395.5,350 393.5,351 392.5,355 389.5,360 390.5,362 386.5,367 385.5,370 386.5,372 385,371.5 383.5,375 380.5,376 383.5,377 380.5,381 380.5,384 378.5,387 379.5,388 374.5,396 375.5,399 372.5,400 373.5,401 371.5,404 372.5,406 370.5,407 366.5,416 366.5,419 363.5,424 363.5,426 359.5,431 359.5,435 358.5,436 359.5,437 356.5,441 355.5,446 353.5,448 353.5,450 349.5,458 350.5,459 348.5,460 347.5,463 348.5,464 344.5,469 342.5,475 343.5,476 341.5,477 342.5,478 338.5,484 339.5,486 335.5,491 335.5,493 331.5,499 332.5,500 331.5,501 332.5,505 332,505.5 331.5,504 330.5,504 330.5,507 327.5,512 327.5,515 325.5,517 326.5,518 324.5,519 325.5,520 322.5,524 323.5,526 321.5,527 322.5,528 320.5,530 321.5,534 321,534.5 320,532.5 317.5,536 313.5,545 314.5,547 312.5,548 313.5,549 311.5,550 312.5,551 309.5,554 308.5,557 309.5,558 307.5,559 307.5,561 304,565.5 302,564.5 300.5,566 301.5,568 300,568.5 299,570.5 298,567.5 297,568.5 296,567.5 294,569.5 293,568.5 292,569.5 289,567.5 287,570.5 284,570.5 282.5,569 282.5,563 283.5,562 282.5,561 282.5,554 280.5,553 282.5,552 282.5,545 281.5,544 282.5,543 282.5,538 281.5,537 282.5,536 281.5,534 282.5,533 282.5,528 279.5,526 282.5,525 281.5,524 282.5,523 281.5,522 282.5,520 281.5,518 282.5,517 282.5,514 281.5,513 285,512.5 286,513.5 289,511.5 289.5,513 291,513.5 292.5,512 292,510.5 295,510.5 297,508.5 298,510.5 298.5,508 301.5,504 300.5,503 301.5,500 303,498.5 306,498.5 307,499.5 307.5,498 304.5,497 306,496.5 308.5,494 308.5,492 317.5,484 317.5,481 316.5,480 317.5,477 314.5,474 315.5,471 314.5,470 313.5,459 311.5,454 311.5,448 309.5,447 310.5,446 310.5,443 309,441.5 306.5,441 309.5,439 309.5,438 307.5,437 309.5,435 309.5,430 311.5,428 310.5,421 308.5,420 310,419.5 310.5,418 308,417.5 305,418.5 302,421.5 298,423.5 297.5,425 293.5,428 294.5,429 291.5,431 293.5,432 290,432.5 288.5,434 285.5,439 284.5,442 285.5,444 283.5,445 283.5,449 281.5,450 282.5,452 280.5,453 281.5,456 280,458.5 278.5,456 278.5,451 276.5,449 277.5,447 277.5,443 276.5,442 278.5,436 278.5,430 277.5,429 279.5,428 279.5,425 279,424.5 277,426.5 269,430.5 262.5,439 263.5,440 261.5,443 262.5,445 260.5,446 260.5,463 261.5,464 259.5,465 260.5,466 261.5,486 262.5,487 262.5,494 263.5,495 262.5,496 263.5,498 262.5,501 263.5,502 263.5,507 262.5,508 263.5,510 262.5,512 263.5,513 260.5,517 260.5,522 258.5,522 251.5,534 252.5,535 250.5,536 252.5,538 251,538.5 250,537.5 248.5,539 249.5,541 248,540.5 245.5,544 243.5,549 239.5,554 238.5,557 236.5,559 236.5,561 234.5,563 235.5,565 232.5,567 233.5,568 230.5,572 231.5,574 230.5,577 231.5,578 231.5,581 233.5,586 233.5,590 234.5,591 234.5,594 238.5,606 238.5,610 235.5,617 230.5,624 231.5,625 227.5,628 223.5,634 225.5,635 221.5,638 221.5,640 219.5,641 216.5,646 217.5,653 219.5,656 219.5,658 222.5,661 221.5,663 223.5,665 222.5,666 230,671.5 233,671.5 234,670.5 237,671.5 239,670.5 240,671.5 241.5,670 241,667.5 243,666.5 245,667.5 248,664.5 258,658.5 259,656.5 262,655.5 265,656.5 267.5,659 266.5,661 267.5,662 264.5,666 259.5,678 260.5,679 259.5,680 260.5,682 257.5,682 258.5,684 254.5,689 254.5,692 252.5,695 253.5,696 251.5,697 252.5,700 251,699.5 249.5,702 250.5,703 248.5,704 247.5,709 245.5,711 246.5,714 243.5,717 242.5,721 239.5,726 239.5,728 238,729.5 236.5,728 236.5,726 234.5,726 235.5,723 231.5,716 230.5,711 228.5,709 228.5,707 226.5,704 227.5,703 223.5,697 224.5,696 221.5,692 219.5,684 217.5,681 217.5,679 215.5,677 216.5,676 213.5,672 214.5,671 212.5,668 211.5,664 208.5,661 209.5,659 203.5,647 204,643.5 204.5,646 205.5,646 205.5,640 207.5,639 208.5,636 212.5,630 215.5,628 216.5,624 219.5,621 217.5,620 220,619.5 221.5,618 225.5,611 224.5,609 225.5,608 224.5,607 225.5,605 223.5,605 224.5,602 222.5,598 219.5,596 220.5,592 219.5,590 217.5,589 218.5,587 215.5,582 214.5,578 213,578.5 212.5,577 213.5,576 213.5,569 214.5,568 213.5,567 215,566.5 217.5,563 216.5,561 218.5,560 218.5,558 222.5,552 221.5,551 225.5,547 223.5,546 226,545.5 227.5,541 229.5,540 228.5,538 231.5,535 231.5,532 233.5,531 232.5,530 234.5,529 233.5,528 235.5,527 235.5,525 237.5,523 237.5,520 239.5,520 240.5,508 241.5,507 239.5,505 240.5,504 239.5,501 241.5,500 239.5,497 239.5,491 238.5,490 237.5,483 235.5,483 236.5,477 234.5,473 234.5,470 232.5,468 233.5,466 230.5,462 230.5,459 227.5,455 228.5,454 227.5,452 221.5,443 215.5,438 216,436.5 213,435.5 212,437.5 211.5,435 212.5,434 211,432.5 210,433.5 209,431.5 207,431.5 201,426.5 200,427.5 197.5,427 198.5,430 197.5,431 199.5,433 198.5,434 199.5,436 198.5,437 198.5,441 199.5,442 199.5,454 197.5,457 197.5,459 196,459.5 195.5,454 193.5,454 194.5,450 191.5,445 192.5,444 191.5,443 191.5,440 188.5,435 183.5,431 183.5,428 181,425.5 180,426.5 179,423.5 177,422.5 176,423.5 175.5,422 171,418.5 169,419.5 168,417.5 165.5,418 166.5,420 166.5,424 167.5,425 167.5,428 166.5,429 167.5,430 166.5,431 166.5,438 167.5,439 165.5,444 166.5,445 164.5,450 165.5,453 164.5,454 164.5,458 163.5,459 162.5,468 161.5,469 162.5,471 161.5,472 162.5,475 161.5,477 161.5,481 162.5,482 161.5,483 162.5,485 164.5,486 165.5,489 167.5,490 167.5,492 169.5,493 170.5,496 173.5,498 175.5,502 177,502.5 180,506.5 183,507.5 187,511.5 194.5,513 194.5,520 195.5,521 194.5,522 195.5,525 194.5,526 194.5,530 195.5,531 194.5,533 194.5,538 195.5,539 194.5,540 195.5,542 194.5,543 194.5,560 195.5,561 194.5,562 195.5,565 194.5,566 195.5,567 194.5,568 194.5,592 195.5,593 194.5,594 197.5,596 196,596.5 194.5,599 194.5,602 195.5,603 194.5,604 195.5,605 194.5,606 194.5,611 195.5,612 194.5,613 195.5,614 194.5,618 195.5,621 193,622.5 193.5,620 191.5,617 191.5,615 190,614.5 188.5,612 189.5,610 187.5,607 187.5,605 182.5,599 183.5,596 181.5,593 181.5,591 180.5,589 177.5,587 179.5,586 178.5,584 176.5,583 177.5,582 175.5,580 176.5,579 175.5,576 173.5,572 170.5,571 171.5,570 171.5,567 169.5,566 170.5,564 169,563.5 169.5,562 167.5,561 168.5,560 165.5,553 163.5,553 164.5,550 162.5,547 160.5,540 157.5,536 158.5,535 156.5,533 155.5,527 152.5,523 152.5,520 150.5,519 151.5,518 149.5,515 148.5,511 146.5,509 147.5,508 146.5,506 144.5,505 145.5,504 143.5,502 144.5,501 143.5,498 141.5,496 140.5,491 138.5,489 139.5,488 137.5,486 138.5,485 137.5,484 137.5,479 135.5,479 134.5,477 135.5,475 131.5,471 131.5,469 129.5,468 130.5,467 128.5,466 129.5,465 128.5,462 125.5,458 125.5,455 123.5,454 124.5,453 121.5,447 122.5,446 120.5,444 119.5,439 117.5,437 116.5,432 112.5,425 114,424.5 114.5,423 112.5,420 110.5,419 110.5,417 107.5,413 107.5,410 105.5,408 106.5,407 104.5,406 105.5,405 103.5,403 103.5,400 99.5,397 100.5,393 98.5,388 96.5,387 97.5,386 93.5,377 91.5,376 92.5,373 89.5,367 88,365.5 86.5,366 86.5,365 88.5,364 84.5,359 85.5,357 83.5,356 84.5,354 83.5,351 81.5,350 81.5,347 79.5,345 80.5,344" fill="#bfc5ca" stroke="#e8eef2" stroke-width="0.6"/></svg>
